<svg width="833" height="323" viewBox="0 0 833 323" fill="none" xmlns="http://www.w3.org/2000/svg">
<path d="M659.102 35.9814C674.47 35.9814 687.947 38.5833 699.527 43.7948C711.175 48.9367 720.327 56.1062 726.972 65.3066C733.621 74.443 737.05 84.9541 737.263 96.829L737.268 97.1142H699.057L699.029 96.8642C698.053 87.9935 693.945 81.0988 686.698 76.1581L686.697 76.1571C679.511 71.2105 670.144 68.7246 658.575 68.7245C650.441 68.7245 643.478 69.9169 637.681 72.2909C631.878 74.6676 627.455 77.8863 624.396 81.9374C621.338 85.9879 619.774 90.6098 619.705 95.8124C619.705 100.139 620.715 103.875 622.721 107.034H622.72C624.807 110.207 627.625 112.912 631.181 115.146H631.18C634.749 117.321 638.704 119.156 643.048 120.653C647.4 122.153 651.788 123.415 656.211 124.437H656.214L676.475 129.357H676.474C684.649 131.206 692.508 133.704 700.05 136.852H700.049C707.669 140.005 714.481 143.98 720.483 148.78L721.05 149.234C726.863 153.951 731.484 159.604 734.91 166.191C738.452 173.003 740.218 180.975 740.218 190.099C740.218 202.449 736.967 213.336 730.46 222.747L730.459 222.748C724.155 231.798 715.134 238.939 703.412 244.175L702.268 244.676C690.054 249.887 675.275 252.488 657.941 252.488C641.626 252.488 627.381 250.111 615.213 245.351L614.041 244.883C601.686 239.809 592.004 232.399 585.005 222.649L585.004 222.648C578.073 212.895 574.331 201.018 573.766 187.035L573.755 186.743H612.824L612.845 187.003C613.404 194.265 615.707 200.288 619.744 205.087C623.79 209.897 629.059 213.491 635.56 215.867H635.559C642.137 218.246 649.491 219.437 657.625 219.437C666.11 219.437 673.532 218.211 679.894 215.767C686.331 213.252 691.354 209.794 694.976 205.396C698.591 200.94 700.435 195.743 700.506 189.795L700.494 189.291C700.332 184.111 698.703 179.838 695.619 176.452L695.617 176.45C692.416 172.869 687.917 169.884 682.106 167.504L682.103 167.502C676.351 165.049 669.612 162.867 661.885 160.957H661.884L637.296 154.808C619.467 150.359 605.352 143.613 594.968 134.557L594.967 134.555C584.629 125.408 579.465 113.269 579.465 98.1659C579.465 85.7432 582.928 74.8538 589.861 65.5097L589.862 65.5087C596.86 56.1727 606.363 48.9353 618.362 43.7939C630.362 38.5835 643.944 35.9814 659.102 35.9814Z" fill="white" stroke="white" stroke-width="0.561547"/>
<path d="M659.102 35.9819C674.47 35.9819 687.947 38.5838 699.527 43.7954C711.175 48.9372 720.327 56.1067 726.972 65.3071C733.621 74.4436 737.05 84.9547 737.263 96.8295L737.268 97.1147H699.057L699.029 96.8647C698.053 87.9941 693.945 81.0993 686.698 76.1586L686.697 76.1577C679.511 71.211 670.144 68.7251 658.575 68.725C650.441 68.725 643.478 69.9174 637.681 72.2914C631.878 74.6681 627.455 77.8869 624.396 81.9379C621.338 85.9884 619.774 90.6103 619.705 95.8129C619.705 100.139 620.715 103.876 622.721 107.035H622.72C624.807 110.208 627.625 112.912 631.181 115.147H631.18C634.749 117.321 638.704 119.157 643.048 120.654C647.4 122.154 651.788 123.415 656.211 124.438H656.214L676.475 129.358H676.474C684.649 131.206 692.508 133.704 700.05 136.853H700.049C707.669 140.005 714.481 143.981 720.483 148.781L721.05 149.235C726.863 153.952 731.484 159.605 734.91 166.192C738.452 173.003 740.218 180.975 740.218 190.099C740.218 202.45 736.967 213.336 730.46 222.748L730.459 222.748C724.155 231.799 715.134 238.939 703.412 244.175L702.268 244.676C690.054 249.888 675.275 252.489 657.941 252.489C641.626 252.489 627.381 250.112 615.213 245.351L614.041 244.883C601.686 239.81 592.004 232.4 585.005 222.65L585.004 222.649C578.073 212.895 574.331 201.019 573.766 187.036L573.755 186.744H612.824L612.845 187.003C613.404 194.265 615.707 200.288 619.744 205.087C623.79 209.897 629.059 213.491 635.56 215.868H635.559C642.137 218.246 649.491 219.438 657.625 219.438C666.11 219.438 673.532 218.211 679.894 215.767C686.331 213.253 691.354 209.794 694.976 205.397C698.591 200.94 700.435 195.744 700.506 189.795L700.494 189.291C700.332 184.112 698.703 179.839 695.619 176.453L695.617 176.451C692.416 172.869 687.917 169.884 682.106 167.504L682.103 167.502C676.351 165.05 669.612 162.868 661.885 160.957H661.884L637.296 154.808C619.467 150.36 605.352 143.613 594.968 134.557L594.967 134.555C584.629 125.409 579.465 113.27 579.465 98.1665C579.465 85.7437 582.928 74.8543 589.861 65.5102L589.862 65.5092C596.86 56.1732 606.363 48.9358 618.362 43.7944C630.362 38.584 643.944 35.9819 659.102 35.9819Z" fill="white" stroke="white" stroke-width="0.561547"/>
<path d="M117.216 35.9812L117.271 36.2L157.317 194.828H158.936L201.697 36.1951L201.754 35.9812L241.647 35.9812L241.705 36.1951L284.631 195.147L284.653 195.227L284.629 195.306L267.458 252.513L267.178 253.444L266.904 252.511L222.409 101.049H221.101L176.497 252.511L176.436 252.718H136.227L136.166 252.51L73.352 36.3513L73.2446 35.9812H117.216Z" fill="white" stroke="white" stroke-width="0.578297"/>
<path d="M462.159 35.9735C484.271 35.9735 503.284 40.3041 519.185 48.9774C535.159 57.5806 547.433 69.959 556 86.1064C564.567 102.254 568.844 121.564 568.844 144.024C568.844 166.203 564.665 185.329 556.293 201.391L555.891 202.152C547.324 218.371 534.941 230.818 518.751 239.491L518.752 239.492C502.633 248.166 483.258 252.496 460.639 252.496H385.004V35.9735H462.159ZM425.86 218.071H458.685C473.659 218.071 486.204 215.504 496.336 210.384L497.308 209.881C507.602 204.358 515.34 196.145 520.525 185.233L521.004 184.195C525.873 173.386 528.314 159.999 528.314 144.024C528.314 127.533 525.712 113.871 520.525 103.026V103.025C515.339 92.1126 507.673 83.9708 497.525 78.5888L497.523 78.5878C487.443 73.1338 474.9 70.3984 459.88 70.3984H425.86V218.071Z" fill="white" stroke="white" stroke-width="0.577725"/>
<path d="M348.786 11.3075L269.773 283.278L293.916 283.278L372.779 11.3044L348.786 11.3075Z" stroke="white" stroke-width="1.38483"/>
<path d="M63.3597 209.704L11.2012 164.045L0.994415 154.143L11.2012 144.241L63.3597 95.3235L75.4327 106.431L25.808 154.143L75.4238 198.589L63.3597 209.704Z" stroke="white" stroke-width="1.38483"/>
<path d="M769.629 209.704L821.788 164.045L831.994 154.143L821.788 144.241L769.629 95.3235L757.556 106.431L807.181 154.143L757.565 198.589L769.629 209.704Z" stroke="white" stroke-width="1.38483"/>
<path d="M226.721 317.653V304.453H235.981V305.953H228.321V310.213H234.281V311.713H228.321V316.153H236.281V317.653H226.721ZM242.775 317.853C241.801 317.853 240.901 317.646 240.075 317.233C239.261 316.82 238.635 316.233 238.195 315.473L239.555 314.493C239.848 315.106 240.275 315.586 240.835 315.933C241.408 316.28 242.095 316.453 242.895 316.453C243.601 316.453 244.155 316.32 244.555 316.053C244.955 315.773 245.155 315.413 245.155 314.973C245.155 314.693 245.061 314.44 244.875 314.213C244.701 313.973 244.361 313.8 243.855 313.693L241.455 313.193C240.481 312.993 239.781 312.66 239.355 312.193C238.941 311.726 238.735 311.146 238.735 310.453C238.735 309.906 238.888 309.406 239.195 308.953C239.515 308.5 239.961 308.14 240.535 307.873C241.121 307.593 241.808 307.453 242.595 307.453C243.581 307.453 244.415 307.646 245.095 308.033C245.775 308.42 246.281 308.966 246.615 309.673L245.275 310.553C245.048 309.966 244.681 309.54 244.175 309.273C243.668 308.993 243.141 308.853 242.595 308.853C242.115 308.853 241.701 308.92 241.355 309.053C241.021 309.186 240.761 309.373 240.575 309.613C240.401 309.84 240.315 310.1 240.315 310.393C240.315 310.686 240.415 310.96 240.615 311.213C240.815 311.453 241.188 311.626 241.735 311.733L244.235 312.253C245.168 312.44 245.821 312.746 246.195 313.173C246.568 313.6 246.755 314.12 246.755 314.733C246.755 315.36 246.588 315.913 246.255 316.393C245.921 316.86 245.455 317.22 244.855 317.473C244.255 317.726 243.561 317.853 242.775 317.853ZM252.082 304.813V314.893C252.082 315.386 252.222 315.753 252.502 315.993C252.782 316.233 253.142 316.353 253.582 316.353C253.968 316.353 254.302 316.286 254.582 316.153C254.862 316.02 255.115 315.84 255.342 315.613L255.902 316.953C255.595 317.233 255.228 317.453 254.802 317.613C254.388 317.773 253.908 317.853 253.362 317.853C252.855 317.853 252.382 317.766 251.942 317.593C251.502 317.406 251.148 317.12 250.882 316.733C250.628 316.333 250.495 315.813 250.482 315.173V305.253L252.082 304.813ZM255.722 307.653V309.033H248.482V307.653H255.722ZM263.941 311.193C263.941 310.446 263.741 309.873 263.341 309.473C262.941 309.06 262.374 308.853 261.641 308.853C260.947 308.853 260.361 309.006 259.881 309.313C259.401 309.606 259.047 310.086 258.821 310.753L257.521 309.953C257.787 309.206 258.281 308.606 259.001 308.153C259.721 307.686 260.614 307.453 261.681 307.453C262.401 307.453 263.054 307.58 263.641 307.833C264.227 308.073 264.687 308.446 265.021 308.953C265.367 309.446 265.541 310.086 265.541 310.873V315.713C265.541 316.193 265.794 316.433 266.301 316.433C266.554 316.433 266.801 316.4 267.041 316.333L266.961 317.593C266.694 317.726 266.347 317.793 265.921 317.793C265.534 317.793 265.187 317.72 264.881 317.573C264.574 317.426 264.334 317.206 264.161 316.913C263.987 316.606 263.901 316.226 263.901 315.773V315.573L264.301 315.633C264.141 316.153 263.867 316.58 263.481 316.913C263.094 317.233 262.661 317.473 262.181 317.633C261.701 317.78 261.227 317.853 260.761 317.853C260.174 317.853 259.627 317.753 259.121 317.553C258.614 317.353 258.207 317.053 257.901 316.653C257.607 316.24 257.461 315.733 257.461 315.133C257.461 314.386 257.707 313.773 258.201 313.293C258.707 312.8 259.407 312.466 260.301 312.293L264.261 311.513V312.833L261.041 313.493C260.387 313.626 259.901 313.813 259.581 314.053C259.261 314.293 259.101 314.626 259.101 315.053C259.101 315.466 259.261 315.806 259.581 316.073C259.914 316.326 260.381 316.453 260.981 316.453C261.367 316.453 261.734 316.406 262.081 316.313C262.441 316.206 262.761 316.053 263.041 315.853C263.321 315.64 263.541 315.38 263.701 315.073C263.861 314.753 263.941 314.38 263.941 313.953V311.193ZM274.329 317.853C273.769 317.853 273.249 317.753 272.769 317.553C272.289 317.353 271.875 317.073 271.529 316.713C271.182 316.353 270.922 315.946 270.749 315.493L270.969 315.213L270.829 317.653H269.429V303.053H271.029V309.913L270.829 309.613C271.095 308.986 271.542 308.473 272.169 308.073C272.809 307.66 273.535 307.453 274.349 307.453C275.175 307.453 275.935 307.66 276.629 308.073C277.322 308.486 277.875 309.08 278.289 309.853C278.702 310.626 278.909 311.56 278.909 312.653C278.909 313.733 278.695 314.666 278.269 315.453C277.855 316.226 277.302 316.82 276.609 317.233C275.915 317.646 275.155 317.853 274.329 317.853ZM274.169 316.453C275.155 316.453 275.922 316.106 276.469 315.413C277.029 314.72 277.309 313.8 277.309 312.653C277.309 311.506 277.035 310.586 276.489 309.893C275.942 309.2 275.175 308.853 274.189 308.853C273.562 308.853 273.009 309.013 272.529 309.333C272.062 309.653 271.695 310.1 271.429 310.673C271.162 311.246 271.029 311.92 271.029 312.693C271.029 313.453 271.155 314.12 271.409 314.693C271.675 315.253 272.042 315.686 272.509 315.993C272.989 316.3 273.542 316.453 274.169 316.453ZM283.488 303.053V315.113C283.488 315.62 283.581 315.973 283.768 316.173C283.954 316.36 284.254 316.453 284.668 316.453C284.934 316.453 285.154 316.433 285.328 316.393C285.501 316.353 285.734 316.28 286.028 316.173L285.768 317.573C285.554 317.666 285.321 317.733 285.068 317.773C284.814 317.826 284.554 317.853 284.288 317.853C283.474 317.853 282.868 317.633 282.468 317.193C282.081 316.753 281.888 316.08 281.888 315.173V303.053H283.488ZM288.881 305.733C288.521 305.733 288.228 305.626 288.001 305.413C287.788 305.186 287.681 304.893 287.681 304.533C287.681 304.173 287.788 303.886 288.001 303.673C288.228 303.446 288.521 303.333 288.881 303.333C289.241 303.333 289.528 303.446 289.741 303.673C289.968 303.886 290.081 304.173 290.081 304.533C290.081 304.893 289.968 305.186 289.741 305.413C289.528 305.626 289.241 305.733 288.881 305.733ZM289.681 307.653V317.653H288.081V307.653H289.681ZM296.993 317.853C296.02 317.853 295.12 317.646 294.293 317.233C293.48 316.82 292.853 316.233 292.413 315.473L293.773 314.493C294.067 315.106 294.493 315.586 295.053 315.933C295.627 316.28 296.313 316.453 297.113 316.453C297.82 316.453 298.373 316.32 298.773 316.053C299.173 315.773 299.373 315.413 299.373 314.973C299.373 314.693 299.28 314.44 299.093 314.213C298.92 313.973 298.58 313.8 298.073 313.693L295.673 313.193C294.7 312.993 294 312.66 293.573 312.193C293.16 311.726 292.953 311.146 292.953 310.453C292.953 309.906 293.107 309.406 293.413 308.953C293.733 308.5 294.18 308.14 294.753 307.873C295.34 307.593 296.027 307.453 296.813 307.453C297.8 307.453 298.633 307.646 299.313 308.033C299.993 308.42 300.5 308.966 300.833 309.673L299.493 310.553C299.267 309.966 298.9 309.54 298.393 309.273C297.887 308.993 297.36 308.853 296.813 308.853C296.333 308.853 295.92 308.92 295.573 309.053C295.24 309.186 294.98 309.373 294.793 309.613C294.62 309.84 294.533 310.1 294.533 310.393C294.533 310.686 294.633 310.96 294.833 311.213C295.033 311.453 295.407 311.626 295.953 311.733L298.453 312.253C299.387 312.44 300.04 312.746 300.413 313.173C300.787 313.6 300.973 314.12 300.973 314.733C300.973 315.36 300.807 315.913 300.473 316.393C300.14 316.86 299.673 317.22 299.073 317.473C298.473 317.726 297.78 317.853 296.993 317.853ZM303.94 317.653V303.053H305.54V309.153C305.887 308.553 306.347 308.12 306.92 307.853C307.494 307.586 308.12 307.453 308.8 307.453C309.52 307.453 310.174 307.593 310.76 307.873C311.347 308.14 311.814 308.553 312.16 309.113C312.52 309.673 312.7 310.386 312.7 311.253V317.653H311.1V311.813C311.1 310.706 310.86 309.94 310.38 309.513C309.914 309.073 309.334 308.853 308.64 308.853C308.16 308.853 307.68 308.966 307.2 309.193C306.72 309.42 306.32 309.793 306 310.313C305.694 310.82 305.54 311.5 305.54 312.353V317.653H303.94ZM320.503 317.853C319.556 317.853 318.71 317.646 317.963 317.233C317.23 316.82 316.656 316.226 316.243 315.453C315.83 314.666 315.623 313.733 315.623 312.653C315.623 311.573 315.83 310.646 316.243 309.873C316.656 309.086 317.223 308.486 317.943 308.073C318.663 307.66 319.483 307.453 320.403 307.453C321.336 307.453 322.13 307.653 322.783 308.053C323.45 308.453 323.956 309 324.303 309.693C324.65 310.373 324.823 311.14 324.823 311.993C324.823 312.22 324.816 312.426 324.803 312.613C324.79 312.8 324.77 312.966 324.743 313.113H316.663V311.693H324.043L323.223 311.853C323.223 310.893 322.956 310.153 322.423 309.633C321.903 309.113 321.216 308.853 320.363 308.853C319.71 308.853 319.143 309.006 318.663 309.313C318.196 309.606 317.83 310.04 317.563 310.613C317.31 311.173 317.183 311.853 317.183 312.653C317.183 313.44 317.316 314.12 317.583 314.693C317.85 315.266 318.223 315.706 318.703 316.013C319.196 316.306 319.783 316.453 320.463 316.453C321.196 316.453 321.79 316.313 322.243 316.033C322.71 315.753 323.083 315.373 323.363 314.893L324.623 315.633C324.37 316.086 324.043 316.48 323.643 316.813C323.256 317.146 322.796 317.406 322.263 317.593C321.743 317.766 321.156 317.853 320.503 317.853ZM331.766 317.853C330.939 317.853 330.179 317.646 329.486 317.233C328.793 316.82 328.239 316.226 327.826 315.453C327.413 314.666 327.206 313.733 327.206 312.653C327.206 311.546 327.426 310.606 327.866 309.833C328.306 309.06 328.886 308.473 329.606 308.073C330.326 307.66 331.099 307.453 331.926 307.453C332.753 307.453 333.466 307.666 334.066 308.093C334.679 308.52 335.086 309.086 335.286 309.793L335.086 309.933V303.053H336.686V317.653H335.286L335.146 315.233L335.366 315.113C335.273 315.7 335.046 316.2 334.686 316.613C334.339 317.013 333.906 317.32 333.386 317.533C332.879 317.746 332.339 317.853 331.766 317.853ZM331.926 316.453C332.566 316.453 333.119 316.293 333.586 315.973C334.066 315.653 334.433 315.2 334.686 314.613C334.953 314.013 335.086 313.313 335.086 312.513C335.086 311.753 334.953 311.1 334.686 310.553C334.433 310.006 334.073 309.586 333.606 309.293C333.153 309 332.619 308.853 332.006 308.853C330.993 308.853 330.206 309.2 329.646 309.893C329.086 310.586 328.806 311.506 328.806 312.653C328.806 313.8 329.079 314.72 329.626 315.413C330.173 316.106 330.939 316.453 331.926 316.453ZM346.842 317.653V316.353C348.162 315.38 349.262 314.526 350.142 313.793C351.035 313.06 351.748 312.393 352.282 311.793C352.815 311.193 353.195 310.626 353.422 310.093C353.648 309.546 353.762 308.98 353.762 308.393C353.762 307.606 353.508 306.973 353.002 306.493C352.508 306 351.828 305.753 350.962 305.753C350.055 305.753 349.328 306.053 348.782 306.653C348.235 307.24 347.915 308.026 347.822 309.013L346.422 308.173C346.542 307.4 346.788 306.72 347.162 306.133C347.548 305.546 348.062 305.086 348.702 304.753C349.355 304.42 350.128 304.253 351.022 304.253C351.702 304.253 352.308 304.353 352.842 304.553C353.388 304.753 353.855 305.04 354.242 305.413C354.628 305.773 354.922 306.206 355.122 306.713C355.335 307.22 355.442 307.78 355.442 308.393C355.442 309.22 355.242 310.033 354.842 310.833C354.442 311.62 353.782 312.446 352.862 313.313C351.942 314.18 350.695 315.14 349.122 316.193V316.213C349.268 316.2 349.468 316.193 349.722 316.193C349.988 316.18 350.248 316.173 350.502 316.173C350.768 316.16 350.968 316.153 351.102 316.153H355.722V317.653H346.842ZM363.242 317.853C361.748 317.853 360.555 317.273 359.662 316.113C358.768 314.953 358.322 313.266 358.322 311.053C358.322 308.84 358.768 307.153 359.662 305.993C360.555 304.833 361.748 304.253 363.242 304.253C364.748 304.253 365.942 304.833 366.822 305.993C367.715 307.153 368.162 308.84 368.162 311.053C368.162 313.266 367.715 314.953 366.822 316.113C365.942 317.273 364.748 317.853 363.242 317.853ZM363.242 316.413C363.948 316.413 364.542 316.213 365.022 315.813C365.515 315.4 365.882 314.793 366.122 313.993C366.375 313.193 366.502 312.213 366.502 311.053C366.502 309.893 366.375 308.913 366.122 308.113C365.882 307.313 365.515 306.713 365.022 306.313C364.542 305.9 363.948 305.693 363.242 305.693C362.535 305.693 361.935 305.9 361.442 306.313C360.962 306.713 360.595 307.313 360.342 308.113C360.102 308.913 359.982 309.893 359.982 311.053C359.982 312.213 360.102 313.193 360.342 313.993C360.595 314.793 360.962 315.4 361.442 315.813C361.935 316.213 362.535 316.413 363.242 316.413ZM370.943 317.653V316.353C372.263 315.38 373.363 314.526 374.243 313.793C375.136 313.06 375.85 312.393 376.383 311.793C376.916 311.193 377.296 310.626 377.523 310.093C377.75 309.546 377.863 308.98 377.863 308.393C377.863 307.606 377.61 306.973 377.103 306.493C376.61 306 375.93 305.753 375.063 305.753C374.156 305.753 373.43 306.053 372.883 306.653C372.336 307.24 372.016 308.026 371.923 309.013L370.523 308.173C370.643 307.4 370.89 306.72 371.263 306.133C371.65 305.546 372.163 305.086 372.803 304.753C373.456 304.42 374.23 304.253 375.123 304.253C375.803 304.253 376.41 304.353 376.943 304.553C377.49 304.753 377.956 305.04 378.343 305.413C378.73 305.773 379.023 306.206 379.223 306.713C379.436 307.22 379.543 307.78 379.543 308.393C379.543 309.22 379.343 310.033 378.943 310.833C378.543 311.62 377.883 312.446 376.963 313.313C376.043 314.18 374.796 315.14 373.223 316.193V316.213C373.37 316.2 373.57 316.193 373.823 316.193C374.09 316.18 374.35 316.173 374.603 316.173C374.87 316.16 375.07 316.153 375.203 316.153H379.823V317.653H370.943ZM382.603 317.653V316.353C383.923 315.38 385.023 314.526 385.903 313.793C386.797 313.06 387.51 312.393 388.043 311.793C388.577 311.193 388.957 310.626 389.183 310.093C389.41 309.546 389.523 308.98 389.523 308.393C389.523 307.606 389.27 306.973 388.763 306.493C388.27 306 387.59 305.753 386.723 305.753C385.817 305.753 385.09 306.053 384.543 306.653C383.997 307.24 383.677 308.026 383.583 309.013L382.183 308.173C382.303 307.4 382.55 306.72 382.923 306.133C383.31 305.546 383.823 305.086 384.463 304.753C385.117 304.42 385.89 304.253 386.783 304.253C387.463 304.253 388.07 304.353 388.603 304.553C389.15 304.753 389.617 305.04 390.003 305.413C390.39 305.773 390.683 306.206 390.883 306.713C391.097 307.22 391.203 307.78 391.203 308.393C391.203 309.22 391.003 310.033 390.603 310.833C390.203 311.62 389.543 312.446 388.623 313.313C387.703 314.18 386.457 315.14 384.883 316.193V316.213C385.03 316.2 385.23 316.193 385.483 316.193C385.75 316.18 386.01 316.173 386.263 316.173C386.53 316.16 386.73 316.153 386.863 316.153H391.483V317.653H382.603ZM408.92 321.353C407.693 321.353 406.56 321.173 405.52 320.813C404.493 320.453 403.593 319.92 402.82 319.213C402.06 318.506 401.467 317.64 401.04 316.613C400.627 315.573 400.42 314.393 400.42 313.073C400.42 311.793 400.64 310.62 401.08 309.553C401.533 308.486 402.16 307.566 402.96 306.793C403.76 306.006 404.7 305.406 405.78 304.993C406.873 304.566 408.067 304.353 409.36 304.353C410.547 304.353 411.627 304.54 412.6 304.913C413.573 305.273 414.413 305.793 415.12 306.473C415.827 307.153 416.367 307.966 416.74 308.913C417.127 309.846 417.32 310.886 417.32 312.033C417.32 313.073 417.187 313.96 416.92 314.693C416.653 315.426 416.293 316.02 415.84 316.473C415.4 316.926 414.92 317.26 414.4 317.473C413.893 317.686 413.393 317.793 412.9 317.793C411.98 317.793 411.28 317.566 410.8 317.113C410.333 316.646 410.113 316.046 410.14 315.313C409.847 315.993 409.42 316.526 408.86 316.913C408.3 317.3 407.693 317.493 407.04 317.493C406.453 317.493 405.927 317.346 405.46 317.053C405.007 316.746 404.647 316.306 404.38 315.733C404.127 315.16 404 314.48 404 313.693C404 313.013 404.1 312.36 404.3 311.733C404.5 311.093 404.787 310.52 405.16 310.013C405.533 309.493 405.987 309.086 406.52 308.793C407.053 308.5 407.653 308.353 408.32 308.353C408.707 308.353 409.073 308.426 409.42 308.573C409.78 308.706 410.087 308.92 410.34 309.213C410.607 309.506 410.787 309.893 410.88 310.373L411.32 308.533H414.24L412.94 314.233C412.9 314.393 412.867 314.546 412.84 314.693C412.813 314.826 412.8 314.96 412.8 315.093C412.8 315.453 412.887 315.706 413.06 315.853C413.233 316 413.46 316.073 413.74 316.073C414.1 316.073 414.433 315.94 414.74 315.673C415.06 315.393 415.313 314.966 415.5 314.393C415.7 313.806 415.8 313.06 415.8 312.153C415.8 311.18 415.647 310.306 415.34 309.533C415.033 308.746 414.593 308.08 414.02 307.533C413.447 306.973 412.767 306.553 411.98 306.273C411.193 305.98 410.327 305.833 409.38 305.833C408.313 305.833 407.34 306 406.46 306.333C405.58 306.666 404.813 307.153 404.16 307.793C403.52 308.433 403.027 309.2 402.68 310.093C402.333 310.986 402.16 311.98 402.16 313.073C402.16 314.206 402.34 315.2 402.7 316.053C403.06 316.893 403.553 317.593 404.18 318.153C404.82 318.726 405.553 319.153 406.38 319.433C407.22 319.726 408.113 319.873 409.06 319.873C410.007 319.873 410.78 319.753 411.38 319.513C411.993 319.286 412.527 319.026 412.98 318.733L413.72 319.973C413.333 320.226 412.92 320.453 412.48 320.653C412.04 320.866 411.533 321.033 410.96 321.153C410.387 321.286 409.707 321.353 408.92 321.353ZM408.36 315.313C408.76 315.313 409.107 315.153 409.4 314.833C409.707 314.513 409.94 314.106 410.1 313.613C410.273 313.12 410.36 312.626 410.36 312.133C410.36 311.8 410.307 311.52 410.2 311.293C410.093 311.053 409.94 310.873 409.74 310.753C409.54 310.62 409.293 310.553 409 310.553C408.667 310.553 408.373 310.646 408.12 310.833C407.867 311.02 407.647 311.266 407.46 311.573C407.273 311.88 407.133 312.213 407.04 312.573C406.947 312.933 406.9 313.28 406.9 313.613C406.9 313.973 406.953 314.28 407.06 314.533C407.18 314.786 407.347 314.98 407.56 315.113C407.787 315.246 408.053 315.313 408.36 315.313ZM429.161 317.653L425.261 304.453H426.921L430.181 316.193L433.281 304.453H435.101L438.201 316.233L441.461 304.453H443.041L439.161 317.653H437.181L434.841 309.093L434.161 306.113H434.141L433.461 309.093L431.141 317.653H429.161ZM449.116 317.853C448.17 317.853 447.323 317.646 446.576 317.233C445.843 316.82 445.27 316.226 444.856 315.453C444.443 314.666 444.236 313.733 444.236 312.653C444.236 311.573 444.443 310.646 444.856 309.873C445.27 309.086 445.836 308.486 446.556 308.073C447.276 307.66 448.096 307.453 449.016 307.453C449.95 307.453 450.743 307.653 451.396 308.053C452.063 308.453 452.57 309 452.916 309.693C453.263 310.373 453.436 311.14 453.436 311.993C453.436 312.22 453.43 312.426 453.416 312.613C453.403 312.8 453.383 312.966 453.356 313.113H445.276V311.693H452.656L451.836 311.853C451.836 310.893 451.57 310.153 451.036 309.633C450.516 309.113 449.83 308.853 448.976 308.853C448.323 308.853 447.756 309.006 447.276 309.313C446.81 309.606 446.443 310.04 446.176 310.613C445.923 311.173 445.796 311.853 445.796 312.653C445.796 313.44 445.93 314.12 446.196 314.693C446.463 315.266 446.836 315.706 447.316 316.013C447.81 316.306 448.396 316.453 449.076 316.453C449.81 316.453 450.403 316.313 450.856 316.033C451.323 315.753 451.696 315.373 451.976 314.893L453.236 315.633C452.983 316.086 452.656 316.48 452.256 316.813C451.87 317.146 451.41 317.406 450.876 317.593C450.356 317.766 449.77 317.853 449.116 317.853ZM460.079 317.853C459.106 317.853 458.206 317.646 457.379 317.233C456.566 316.82 455.939 316.233 455.499 315.473L456.859 314.493C457.153 315.106 457.579 315.586 458.139 315.933C458.713 316.28 459.399 316.453 460.199 316.453C460.906 316.453 461.459 316.32 461.859 316.053C462.259 315.773 462.459 315.413 462.459 314.973C462.459 314.693 462.366 314.44 462.179 314.213C462.006 313.973 461.666 313.8 461.159 313.693L458.759 313.193C457.786 312.993 457.086 312.66 456.659 312.193C456.246 311.726 456.039 311.146 456.039 310.453C456.039 309.906 456.193 309.406 456.499 308.953C456.819 308.5 457.266 308.14 457.839 307.873C458.426 307.593 459.113 307.453 459.899 307.453C460.886 307.453 461.719 307.646 462.399 308.033C463.079 308.42 463.586 308.966 463.919 309.673L462.579 310.553C462.353 309.966 461.986 309.54 461.479 309.273C460.973 308.993 460.446 308.853 459.899 308.853C459.419 308.853 459.006 308.92 458.659 309.053C458.326 309.186 458.066 309.373 457.879 309.613C457.706 309.84 457.619 310.1 457.619 310.393C457.619 310.686 457.719 310.96 457.919 311.213C458.119 311.453 458.493 311.626 459.039 311.733L461.539 312.253C462.473 312.44 463.126 312.746 463.499 313.173C463.873 313.6 464.059 314.12 464.059 314.733C464.059 315.36 463.893 315.913 463.559 316.393C463.226 316.86 462.759 317.22 462.159 317.473C461.559 317.726 460.866 317.853 460.079 317.853ZM469.386 304.813V314.893C469.386 315.386 469.526 315.753 469.806 315.993C470.086 316.233 470.446 316.353 470.886 316.353C471.273 316.353 471.606 316.286 471.886 316.153C472.166 316.02 472.42 315.84 472.646 315.613L473.206 316.953C472.9 317.233 472.533 317.453 472.106 317.613C471.693 317.773 471.213 317.853 470.666 317.853C470.16 317.853 469.686 317.766 469.246 317.593C468.806 317.406 468.453 317.12 468.186 316.733C467.933 316.333 467.8 315.813 467.786 315.173V305.253L469.386 304.813ZM473.026 307.653V309.033H465.786V307.653H473.026ZM479.585 317.853C478.639 317.853 477.792 317.646 477.045 317.233C476.312 316.82 475.739 316.226 475.325 315.453C474.912 314.666 474.705 313.733 474.705 312.653C474.705 311.573 474.912 310.646 475.325 309.873C475.739 309.086 476.305 308.486 477.025 308.073C477.745 307.66 478.565 307.453 479.485 307.453C480.419 307.453 481.212 307.653 481.865 308.053C482.532 308.453 483.039 309 483.385 309.693C483.732 310.373 483.905 311.14 483.905 311.993C483.905 312.22 483.899 312.426 483.885 312.613C483.872 312.8 483.852 312.966 483.825 313.113H475.745V311.693H483.125L482.305 311.853C482.305 310.893 482.039 310.153 481.505 309.633C480.985 309.113 480.299 308.853 479.445 308.853C478.792 308.853 478.225 309.006 477.745 309.313C477.279 309.606 476.912 310.04 476.645 310.613C476.392 311.173 476.265 311.853 476.265 312.653C476.265 313.44 476.399 314.12 476.665 314.693C476.932 315.266 477.305 315.706 477.785 316.013C478.279 316.306 478.865 316.453 479.545 316.453C480.279 316.453 480.872 316.313 481.325 316.033C481.792 315.753 482.165 315.373 482.445 314.893L483.705 315.633C483.452 316.086 483.125 316.48 482.725 316.813C482.339 317.146 481.879 317.406 481.345 317.593C480.825 317.766 480.239 317.853 479.585 317.853ZM486.948 317.653V307.653H488.248L488.468 309.293C488.748 308.68 489.155 308.22 489.688 307.913C490.235 307.606 490.895 307.453 491.668 307.453C491.841 307.453 492.028 307.466 492.228 307.493C492.441 307.52 492.621 307.573 492.768 307.653L492.488 309.113C492.341 309.06 492.181 309.02 492.008 308.993C491.835 308.966 491.588 308.953 491.268 308.953C490.855 308.953 490.435 309.073 490.008 309.313C489.595 309.553 489.248 309.92 488.968 310.413C488.688 310.893 488.548 311.506 488.548 312.253V317.653H486.948ZM495.112 317.653V307.653H496.512L496.652 309.893L496.392 309.673C496.606 309.14 496.892 308.713 497.252 308.393C497.612 308.06 498.026 307.82 498.492 307.673C498.972 307.526 499.466 307.453 499.972 307.453C500.692 307.453 501.346 307.593 501.932 307.873C502.519 308.14 502.986 308.553 503.332 309.113C503.692 309.673 503.872 310.386 503.872 311.253V317.653H502.272V311.813C502.272 310.706 502.032 309.94 501.552 309.513C501.086 309.073 500.506 308.853 499.812 308.853C499.332 308.853 498.852 308.966 498.372 309.193C497.892 309.42 497.492 309.786 497.172 310.293C496.866 310.8 496.712 311.48 496.712 312.333V317.653H495.112ZM524.711 304.453V312.733C524.711 314.426 524.265 315.706 523.371 316.573C522.478 317.426 521.198 317.853 519.531 317.853C517.878 317.853 516.598 317.426 515.691 316.573C514.798 315.706 514.351 314.426 514.351 312.733V304.453H515.951V312.333C515.951 313.706 516.238 314.72 516.811 315.373C517.398 316.026 518.305 316.353 519.531 316.353C520.758 316.353 521.658 316.026 522.231 315.373C522.818 314.72 523.111 313.706 523.111 312.333V304.453H524.711ZM528.374 317.653V307.653H529.774L529.914 309.893L529.654 309.673C529.867 309.14 530.154 308.713 530.514 308.393C530.874 308.06 531.287 307.82 531.754 307.673C532.234 307.526 532.727 307.453 533.234 307.453C533.954 307.453 534.607 307.593 535.194 307.873C535.781 308.14 536.247 308.553 536.594 309.113C536.954 309.673 537.134 310.386 537.134 311.253V317.653H535.534V311.813C535.534 310.706 535.294 309.94 534.814 309.513C534.347 309.073 533.767 308.853 533.074 308.853C532.594 308.853 532.114 308.966 531.634 309.193C531.154 309.42 530.754 309.786 530.434 310.293C530.127 310.8 529.974 311.48 529.974 312.333V317.653H528.374ZM541.557 305.733C541.197 305.733 540.903 305.626 540.677 305.413C540.463 305.186 540.357 304.893 540.357 304.533C540.357 304.173 540.463 303.886 540.677 303.673C540.903 303.446 541.197 303.333 541.557 303.333C541.917 303.333 542.203 303.446 542.417 303.673C542.643 303.886 542.757 304.173 542.757 304.533C542.757 304.893 542.643 305.186 542.417 305.413C542.203 305.626 541.917 305.733 541.557 305.733ZM542.357 307.653V317.653H540.757V307.653H542.357ZM552.689 307.653H554.369L550.209 317.653H548.609L544.449 307.653H546.269L549.429 316.033L552.689 307.653ZM560.64 317.853C559.693 317.853 558.847 317.646 558.1 317.233C557.367 316.82 556.793 316.226 556.38 315.453C555.967 314.666 555.76 313.733 555.76 312.653C555.76 311.573 555.967 310.646 556.38 309.873C556.793 309.086 557.36 308.486 558.08 308.073C558.8 307.66 559.62 307.453 560.54 307.453C561.473 307.453 562.267 307.653 562.92 308.053C563.587 308.453 564.093 309 564.44 309.693C564.787 310.373 564.96 311.14 564.96 311.993C564.96 312.22 564.953 312.426 564.94 312.613C564.927 312.8 564.907 312.966 564.88 313.113H556.8V311.693H564.18L563.36 311.853C563.36 310.893 563.093 310.153 562.56 309.633C562.04 309.113 561.353 308.853 560.5 308.853C559.847 308.853 559.28 309.006 558.8 309.313C558.333 309.606 557.967 310.04 557.7 310.613C557.447 311.173 557.32 311.853 557.32 312.653C557.32 313.44 557.453 314.12 557.72 314.693C557.987 315.266 558.36 315.706 558.84 316.013C559.333 316.306 559.92 316.453 560.6 316.453C561.333 316.453 561.927 316.313 562.38 316.033C562.847 315.753 563.22 315.373 563.5 314.893L564.76 315.633C564.507 316.086 564.18 316.48 563.78 316.813C563.393 317.146 562.933 317.406 562.4 317.593C561.88 317.766 561.293 317.853 560.64 317.853ZM568.003 317.653V307.653H569.303L569.523 309.293C569.803 308.68 570.21 308.22 570.743 307.913C571.29 307.606 571.95 307.453 572.723 307.453C572.896 307.453 573.083 307.466 573.283 307.493C573.496 307.52 573.676 307.573 573.823 307.653L573.543 309.113C573.396 309.06 573.236 309.02 573.063 308.993C572.89 308.966 572.643 308.953 572.323 308.953C571.91 308.953 571.49 309.073 571.063 309.313C570.65 309.553 570.303 309.92 570.023 310.413C569.743 310.893 569.603 311.506 569.603 312.253V317.653H568.003ZM579.337 317.853C578.364 317.853 577.464 317.646 576.637 317.233C575.824 316.82 575.197 316.233 574.757 315.473L576.117 314.493C576.411 315.106 576.837 315.586 577.397 315.933C577.971 316.28 578.657 316.453 579.457 316.453C580.164 316.453 580.717 316.32 581.117 316.053C581.517 315.773 581.717 315.413 581.717 314.973C581.717 314.693 581.624 314.44 581.437 314.213C581.264 313.973 580.924 313.8 580.417 313.693L578.017 313.193C577.044 312.993 576.344 312.66 575.917 312.193C575.504 311.726 575.297 311.146 575.297 310.453C575.297 309.906 575.451 309.406 575.757 308.953C576.077 308.5 576.524 308.14 577.097 307.873C577.684 307.593 578.371 307.453 579.157 307.453C580.144 307.453 580.977 307.646 581.657 308.033C582.337 308.42 582.844 308.966 583.177 309.673L581.837 310.553C581.611 309.966 581.244 309.54 580.737 309.273C580.231 308.993 579.704 308.853 579.157 308.853C578.677 308.853 578.264 308.92 577.917 309.053C577.584 309.186 577.324 309.373 577.137 309.613C576.964 309.84 576.877 310.1 576.877 310.393C576.877 310.686 576.977 310.96 577.177 311.213C577.377 311.453 577.751 311.626 578.297 311.733L580.797 312.253C581.731 312.44 582.384 312.746 582.757 313.173C583.131 313.6 583.317 314.12 583.317 314.733C583.317 315.36 583.151 315.913 582.817 316.393C582.484 316.86 582.017 317.22 581.417 317.473C580.817 317.726 580.124 317.853 579.337 317.853ZM587.084 305.733C586.724 305.733 586.431 305.626 586.204 305.413C585.991 305.186 585.884 304.893 585.884 304.533C585.884 304.173 585.991 303.886 586.204 303.673C586.431 303.446 586.724 303.333 587.084 303.333C587.444 303.333 587.731 303.446 587.944 303.673C588.171 303.886 588.284 304.173 588.284 304.533C588.284 304.893 588.171 305.186 587.944 305.413C587.731 305.626 587.444 305.733 587.084 305.733ZM587.884 307.653V317.653H586.284V307.653H587.884ZM593.957 304.813V314.893C593.957 315.386 594.097 315.753 594.377 315.993C594.657 316.233 595.017 316.353 595.457 316.353C595.843 316.353 596.177 316.286 596.457 316.153C596.737 316.02 596.99 315.84 597.217 315.613L597.777 316.953C597.47 317.233 597.103 317.453 596.677 317.613C596.263 317.773 595.783 317.853 595.237 317.853C594.73 317.853 594.257 317.766 593.817 317.593C593.377 317.406 593.023 317.12 592.757 316.733C592.503 316.333 592.37 315.813 592.357 315.173V305.253L593.957 304.813ZM597.597 307.653V309.033H590.357V307.653H597.597ZM608.196 307.653L603.496 319.333C603.242 319.986 602.962 320.5 602.656 320.873C602.362 321.26 602.029 321.533 601.656 321.693C601.296 321.866 600.876 321.953 600.396 321.953C599.942 321.953 599.522 321.886 599.136 321.753C598.762 321.633 598.429 321.466 598.136 321.253L598.576 319.853C598.842 320.093 599.122 320.266 599.416 320.373C599.722 320.493 600.022 320.553 600.316 320.553C600.662 320.553 600.989 320.446 601.296 320.233C601.602 320.02 601.882 319.586 602.136 318.933L602.656 317.633L601.656 315.253L598.476 307.653H600.296L602.796 314.173L603.416 315.953L604.136 313.973L606.476 307.653H608.196Z" fill="white"/>
</svg>
